<?xml version="1.0" standalone="no"?>
<!DOCTYPE svg PUBLIC "-//W3C//DTD SVG 20010904//EN"
 "http://www.w3.org/TR/2001/REC-SVG-20010904/DTD/svg10.dtd">
<svg version="1.0" xmlns="http://www.w3.org/2000/svg"
 width="577.000000pt" height="577.000000pt" viewBox="0 0 577.000000 577.000000"
 preserveAspectRatio="xMidYMid meet">
<metadata>
Created by potrace 1.11, written by Peter Selinger 2001-2013
</metadata>
<g transform="translate(0.000000,577.000000) scale(0.100000,-0.100000)"
fill="#000000" stroke="none">
<path d="M2630 5177 c-3 -3 -24 -7 -48 -11 -38 -5 -105 -42 -144 -79 -7 -6
-28 -24 -46 -39 l-33 -28 100 -65 c85 -54 105 -63 123 -55 13 5 77 26 143 46
154 48 219 82 233 124 25 70 -35 102 -203 108 -66 2 -122 2 -125 -1z"/>
<path d="M4287 4919 c-52 -32 -107 -73 -122 -91 -24 -28 -27 -38 -21 -81 6
-55 41 -122 90 -170 68 -68 255 -137 371 -137 71 0 147 38 191 95 24 32 26 41
21 95 -6 74 -42 139 -100 182 -38 28 -205 112 -298 151 l-36 15 -96 -59z"/>
<path d="M3045 4869 c-71 -10 -171 -37 -221 -61 -100 -47 -173 -144 -160 -213
21 -109 118 -164 465 -264 169 -48 173 -49 224 -35 29 8 65 16 80 19 159 30
315 82 367 123 160 127 42 324 -238 397 -148 40 -372 54 -517 34z"/>
<path d="M2062 4763 c-178 -29 -342 -107 -492 -232 -77 -65 -100 -90 -121
-136 -38 -82 -20 -124 72 -164 73 -33 141 -36 242 -12 49 12 91 21 94 21 8 0
-20 -24 -162 -140 -77 -62 -142 -116 -145 -119 -8 -9 -254 -206 -267 -214 -9
-6 -11 11 -9 63 4 130 -33 217 -106 250 -72 32 -134 15 -239 -66 -92 -71 -164
-160 -218 -269 -76 -156 -95 -258 -62 -346 37 -99 89 -126 196 -102 74 17 126
47 216 124 l69 60 0 -103 c0 -153 7 -309 14 -343 31 -135 60 -211 113 -293
117 -183 309 -306 590 -377 148 -37 385 -41 568 -9 306 52 596 203 810 419
213 215 325 465 325 725 1 52 -1 104 -4 115 -2 11 -9 40 -15 65 -38 169 -159
339 -316 447 -133 91 -338 161 -522 178 -32 3 -74 8 -93 10 -19 2 -100 7 -180
11 -80 4 -161 8 -180 9 -19 2 -55 3 -80 4 l-45 2 40 35 c236 213 276 285 202
359 -48 48 -132 56 -295 28z"/>
<path d="M1275 4581 c-22 -10 -98 -42 -168 -71 -132 -55 -177 -88 -177 -133 0
-27 52 -167 62 -167 4 0 18 9 30 19 13 11 77 63 143 116 208 169 200 158 180
228 -8 31 -15 32 -70 8z"/>
<path d="M3964 4285 c-145 -44 -260 -169 -295 -323 -14 -62 -14 -185 0 -247
88 -374 456 -618 803 -530 157 40 250 123 298 265 21 61 28 177 15 240 -34
169 -144 340 -297 461 -63 49 -193 114 -273 134 -68 18 -190 17 -251 0z"/>
<path d="M325 3476 c-79 -34 -179 -188 -192 -293 -5 -46 -2 -58 21 -93 51 -77
111 -82 180 -13 67 68 141 254 127 323 -7 33 -67 89 -96 89 -5 0 -24 -6 -40
-13z"/>
<path d="M701 3030 c-97 -32 -174 -119 -210 -234 -15 -46 -19 -84 -17 -156 3
-114 31 -195 102 -302 158 -237 343 -299 515 -172 79 57 116 131 126 244 3 48
10 70 25 82 19 17 18 20 -57 165 -84 162 -144 253 -200 301 -88 78 -191 104
-284 72z"/>
<path d="M3875 2943 c-170 -19 -341 -78 -464 -160 -20 -13 -44 -29 -55 -36
-137 -91 -271 -244 -332 -382 -69 -157 -82 -359 -30 -467 74 -152 228 -218
474 -204 57 3 106 7 110 10 4 2 23 7 42 10 276 44 551 264 703 561 59 115 72
168 71 280 0 88 -4 107 -28 157 -49 103 -151 182 -272 212 -62 16 -168 25
-219 19z"/>
<path d="M5054 2735 c-252 -53 -463 -272 -481 -502 -12 -146 86 -277 247 -330
216 -71 518 54 661 273 70 108 97 229 75 332 -7 34 -52 108 -84 138 -89 84
-262 121 -418 89z"/>
<path d="M1865 2273 c-147 -14 -300 -52 -399 -99 -136 -64 -209 -185 -200
-327 11 -164 116 -280 318 -352 144 -52 426 -121 435 -107 4 7 45 14 102 17
129 7 143 10 245 46 107 38 158 66 211 119 118 115 133 313 32 440 -81 102
-228 183 -425 234 -87 22 -242 36 -319 29z"/>
<path d="M478 2082 c-38 -5 -97 -67 -128 -136 -21 -47 -26 -70 -24 -117 7
-107 75 -248 147 -303 50 -38 118 -66 163 -66 50 0 83 31 148 142 l45 77 -49
118 c-79 186 -124 239 -237 276 -21 7 -50 11 -65 9z"/>
<path d="M2597 1304 c-1 -2 -21 -5 -43 -8 -111 -13 -280 -92 -352 -163 -110
-111 -112 -246 -3 -353 63 -61 121 -86 319 -135 l103 -26 102 36 c214 75 304
121 369 187 63 65 87 173 55 249 -43 104 -155 170 -347 204 -36 7 -198 14
-203 9z"/>
</g>
</svg>
